# xmcd CD database file
#
# Track frame offsets:
#	150
#	20860
#	40687
#
# Disc length: 857 seconds
#
# Revision: 0
# Processed by: cddbd v1.5.1PL0 Copyright (c) Steve Scherf et al.
# Submitted via: CDex 1.51
#
DISCID=1e035703
DTITLE=真心ブラザーズ - エンドレス　サマーヌード
DYEAR=1997
DGENRE=JPop
TTITLE0=エンドレス　サマーヌード
TTITLE1=スタンダード2
TTITLE2=エンドレス　サマーヌード（オリジナル　カラオケ）
EXTD=YEAR: 1997
EXTT0=
EXTT1=
EXTT2=
PLAYORDER=
